<?xml version='1.0' encoding='utf-8'?>
<svg xmlns="http://www.w3.org/2000/svg" width="520" height="613" viewBox="0 0 520 613" role="img" aria-label="Aidan's GitHub stats, authored languages, and career source lines added"><title>Aidan's GitHub stats, authored languages, and career source lines added</title><svg width="520" height="270" viewBox="0 0 495 257" fill="none">
        <style>
          .header {
            font: 600 18px 'Segoe UI', Ubuntu, Sans-Serif;
            fill: #58A6FF;
            animation: fadeInAnimation 0.8s ease-in-out forwards;
          }

    .stat {
      font: 600 14px 'Inter', Ubuntu, "Helvetica Neue", Sans-Serif; fill: #C9D1D9;
    }
    .stagger {
      opacity: 0;
      animation: fadeInAnimation 0.3s ease-in-out forwards;
    }
    .rank-text {
      font: 800 24px 'Inter', Ubuntu, Sans-Serif; fill: #C9D1D9;
      animation: scaleInAnimation 0.3s ease-in-out forwards;
    }

    .bold { font-weight: 700 }
    .icon {
      fill: #58A6FF;
      display: block;
    }

    .rank-circle-rim {
      stroke: #58A6FF;
      fill: none;
      stroke-width: 6;
      opacity: 0.2;
    }
    .rank-circle {
      stroke: #58A6FF;
      stroke-dasharray: 250;
      fill: none;
      stroke-width: 6;
      stroke-linecap: round;
      opacity: 0.8;
      transform-origin: -10px 8px;
      transform: rotate(-90deg);
      animation: rankAnimation 1s forwards ease-in-out;
    }

    @keyframes rankAnimation {
      from {
        stroke-dashoffset: 251.32741228718345;
      }
      to {
        stroke-dashoffset: 66.66340068159242;
      }
    }




    /* Animations */
    @keyframes scaleInAnimation {
      from {
        transform: translate(-5px, 5px) scale(0);
      }
      to {
        transform: translate(-5px, 5px) scale(1);
      }
    }
    @keyframes fadeInAnimation {
      from {
        opacity: 0;
      }
      to {
        opacity: 1;
      }
    }

        </style>

        undefined

        <rect data-testid="card-bg" x="0.5" y="0.5" rx="4.5" height="99%" stroke="#E4E2E2" width="494" fill="#020C14" stroke-opacity="0" />


      <g data-testid="card-title" transform="translate(25, 35)">
        <g transform="translate(0, 0)">
      <text x="0" y="0" class="header" data-testid="header">My GitHub Statistics</text>
    </g>
      </g>


        <g data-testid="main-card-body" transform="translate(0, 55)">

    <g data-testid="rank-circle" transform="translate(400, 82)">
        <circle class="rank-circle-rim" cx="-10" cy="8" r="40" />
        <circle class="rank-circle" cx="-10" cy="8" r="40" />
        <g class="rank-text" transform="translate(-10, 8)">
          <text x="0" y="0" alignment-baseline="central" dominant-baseline="central" text-anchor="middle">
            A++
          </text>
        </g>
      </g>

    <svg x="0" y="0">
      <g transform="translate(0, 0)">
    <g class="stagger" style="animation-delay: 450ms" transform="translate(25, 0)">

    <svg data-testid="icon" class="icon" viewBox="0 0 16 16" version="1.1" width="16" height="16">
      <path fill-rule="evenodd" d="M8 .25a.75.75 0 01.673.418l1.882 3.815 4.21.612a.75.75 0 01.416 1.279l-3.046 2.97.719 4.192a.75.75 0 01-1.088.791L8 12.347l-3.766 1.98a.75.75 0 01-1.088-.79l.72-4.194L.818 6.374a.75.75 0 01.416-1.28l4.21-.611L7.327.668A.75.75 0 018 .25zm0 2.445L6.615 5.5a.75.75 0 01-.564.41l-3.097.45 2.24 2.184a.75.75 0 01.216.664l-.528 3.084 2.769-1.456a.75.75 0 01.698 0l2.77 1.456-.53-3.084a.75.75 0 01.216-.664l2.24-2.183-3.096-.45a.75.75 0 01-.564-.41L8 2.694v.001z" />
    </svg>

      <text class="stat bold" x="25" y="14" style="font-size: 16px">Total Stars:</text>
      <text class="stat" x="150" y="14" data-testid="stars" style="font-size: 16px">27</text>
    </g>
  </g><g transform="translate(0, 27)">
    <g class="stagger" style="animation-delay: 600ms" transform="translate(25, 0)">

    <svg data-testid="icon" class="icon" viewBox="0 0 16 16" version="1.1" width="16" height="16">
      <path fill-rule="evenodd" d="M1.643 3.143L.427 1.927A.25.25 0 000 2.104V5.75c0 .138.112.25.25.25h3.646a.25.25 0 00.177-.427L2.715 4.215a6.5 6.5 0 11-1.18 4.458.75.75 0 10-1.493.154 8.001 8.001 0 101.6-5.684zM7.75 4a.75.75 0 01.75.75v2.992l2.028.812a.75.75 0 01-.557 1.392l-2.5-1A.75.75 0 017 8.25v-3.5A.75.75 0 017.75 4z" />
    </svg>

      <text class="stat bold" x="25" y="14" style="font-size: 16px">Total Commits:</text>
      <text class="stat" x="150" y="14" data-testid="commits" style="font-size: 16px">7.7k</text>
    </g>
  </g><g transform="translate(0, 54)">
    <g class="stagger" style="animation-delay: 750ms" transform="translate(25, 0)">

    <svg data-testid="icon" class="icon" viewBox="0 0 16 16" version="1.1" width="16" height="16">
      <path fill-rule="evenodd" d="M7.177 3.073L9.573.677A.25.25 0 0110 .854v4.792a.25.25 0 01-.427.177L7.177 3.427a.25.25 0 010-.354zM3.75 2.5a.75.75 0 100 1.5.75.75 0 000-1.5zm-2.25.75a2.25 2.25 0 113 2.122v5.256a2.251 2.251 0 11-1.5 0V5.372A2.25 2.25 0 011.5 3.25zM11 2.5h-1V4h1a1 1 0 011 1v5.628a2.251 2.251 0 101.5 0V5A2.5 2.5 0 0011 2.5zm1 10.25a.75.75 0 111.5 0 .75.75 0 01-1.5 0zM3.75 12a.75.75 0 100 1.5.75.75 0 000-1.5z" />
    </svg>

      <text class="stat bold" x="25" y="14" style="font-size: 16px">Total PRs:</text>
      <text class="stat" x="150" y="14" data-testid="prs" style="font-size: 16px">650</text>
    </g>
  </g><g transform="translate(0, 81)">
    <g class="stagger" style="animation-delay: 750ms" transform="translate(25, 0)">

    <svg data-testid="icon" class="icon" viewBox="0 0 16 16" version="1.1" width="16" height="16">
      <path fill-rule="evenodd" d="M7.177 3.073L9.573.677A.25.25 0 0110 .854v4.792a.25.25 0 01-.427.177L7.177 3.427a.25.25 0 010-.354zM3.75 2.5a.75.75 0 100 1.5.75.75 0 000-1.5zm-2.25.75a2.25 2.25 0 113 2.122v5.256a2.251 2.251 0 11-1.5 0V5.372A2.25 2.25 0 011.5 3.25zM11 2.5h-1V4h1a1 1 0 011 1v5.628a2.251 2.251 0 101.5 0V5A2.5 2.5 0 0011 2.5zm1 10.25a.75.75 0 111.5 0 .75.75 0 01-1.5 0zM3.75 12a.75.75 0 100 1.5.75.75 0 000-1.5z" />
    </svg>

      <text class="stat bold" x="25" y="14" style="font-size: 16px">PRs merged:</text>
      <text class="stat" x="150" y="14" data-testid="prs-merged" style="font-size: 16px">551</text>
    </g>
  </g><g transform="translate(0, 108)">
    <g class="stagger" style="animation-delay: 750ms" transform="translate(25, 0)">

    <svg data-testid="icon" class="icon" viewBox="0 0 16 16" version="1.1" width="16" height="16">
      <path fill-rule="evenodd" d="M7.177 3.073L9.573.677A.25.25 0 0110 .854v4.792a.25.25 0 01-.427.177L7.177 3.427a.25.25 0 010-.354zM3.75 2.5a.75.75 0 100 1.5.75.75 0 000-1.5zm-2.25.75a2.25 2.25 0 113 2.122v5.256a2.251 2.251 0 11-1.5 0V5.372A2.25 2.25 0 011.5 3.25zM11 2.5h-1V4h1a1 1 0 011 1v5.628a2.251 2.251 0 101.5 0V5A2.5 2.5 0 0011 2.5zm1 10.25a.75.75 0 111.5 0 .75.75 0 01-1.5 0zM3.75 12a.75.75 0 100 1.5.75.75 0 000-1.5z" />
    </svg>

      <text class="stat bold" x="25" y="14" style="font-size: 16px">PRs reviewed:</text>
      <text class="stat" x="150" y="14" data-testid="prs-reviewed" style="font-size: 16px">264</text>
    </g>
  </g><g transform="translate(0, 135)">
    <g class="stagger" style="animation-delay: 900ms" transform="translate(25, 0)">

    <svg data-testid="icon" class="icon" viewBox="0 0 16 16" version="1.1" width="16" height="16">
      <path fill-rule="evenodd" d="M8 1.5a6.5 6.5 0 100 13 6.5 6.5 0 000-13zM0 8a8 8 0 1116 0A8 8 0 010 8zm9 3a1 1 0 11-2 0 1 1 0 012 0zm-.25-6.25a.75.75 0 00-1.5 0v3.5a.75.75 0 001.5 0v-3.5z" />
    </svg>

      <text class="stat bold" x="25" y="14" style="font-size: 16px">Total Issues:</text>
      <text class="stat" x="150" y="14" data-testid="issues" style="font-size: 16px">287</text>
    </g>
  </g><g transform="translate(0, 162)">
    <g class="stagger" style="animation-delay: 1050ms" transform="translate(25, 0)">

    <svg data-testid="icon" class="icon" viewBox="0 0 16 16" version="1.1" width="16" height="16">
      <path fill-rule="evenodd" d="M2 2.5A2.5 2.5 0 014.5 0h8.75a.75.75 0 01.75.75v12.5a.75.75 0 01-.75.75h-2.5a.75.75 0 110-1.5h1.75v-2h-8a1 1 0 00-.714 1.7.75.75 0 01-1.072 1.05A2.495 2.495 0 012 11.5v-9zm10.5-1V9h-8c-.356 0-.694.074-1 .208V2.5a1 1 0 011-1h8zM5 12.25v3.25a.25.25 0 00.4.2l1.45-1.087a.25.25 0 01.3 0L8.6 15.7a.25.25 0 00.4-.2v-3.25a.25.25 0 00-.25-.25h-3.5a.25.25 0 00-.25.25z" />
    </svg>

      <text class="stat bold" x="25" y="14" style="font-size: 16px">Contributed to:</text>
      <text class="stat" x="150" y="14" data-testid="contribs" style="font-size: 16px">28</text>
    </g>
  </g>
    </svg>

        </g>
      <style>* { animation: none !important; } .header, .stagger, .rank-text { opacity: 1 !important; } .rank-circle { stroke-dashoffset: 66.66340068159242 !important; } .header { font-size: 20px; }</style><metadata id="additional-pr-stats">{"provider": "https://github-readme-stats-eight-theta.vercel.app/api?username=aidangarske&amp;include_all_commits=true&amp;show_icons=true&amp;title_color=58A6FF&amp;icon_color=58A6FF&amp;text_color=C9D1D9&amp;bg_color=020C14&amp;hide_border=true", "merged": 551, "reviewed": 264}</metadata></svg><svg width="520" height="331" viewBox="0 0 520 331" role="img" aria-label="Languages · all time · public + private" y="282"><title>Languages · all time</title><desc>Git source-line additions, including comments and blank lines; non-merge authored commits; exact SHA duplicates counted once; renames detected. Only accessible repositories are included.</desc><metadata id="language-data">{"authored_commits": 5406, "career_added": {"Assembly": 4535, "C": 703584, "C#": 13170, "C++": 11, "Go": 395, "Groovy": 844, "Java": 9186, "JavaScript": 14510, "Python": 82820, "Ruby": 152, "Rust": 10369, "Shell": 82240, "TypeScript": 10676}, "career_commits": 6249, "career_deleted": {"Assembly": 273, "C": 129645, "C#": 944, "C++": 0, "Go": 50, "Groovy": 148, "Java": 413, "JavaScript": 1024, "Python": 6856, "Ruby": 24, "Rust": 1948, "Shell": 15250, "TypeScript": 5304}, "career_loc_added": 932492, "career_loc_deleted": 161879, "counts": {"Assembly": 93, "C": 10008, "C#": 4, "C++": 1, "Go": 2, "Groovy": 24, "Java": 2, "JavaScript": 143, "Python": 953, "Ruby": 13, "Rust": 293, "Shell": 1717, "TypeScript": 205}, "language_percentage_metric": "source lines added", "language_period": "career", "loc_method": "Git source-line additions, including comments and blank lines; non-merge authored commits; exact SHA duplicates counted once; renames detected. Only accessible repositories are included.", "private_repositories": 70, "repositories": 152, "scope": "public + private", "since": "2025-10-09T16:18:35.856773Z", "source_file_changes": 13458, "through": "2026-10-09T16:18:35.856773Z", "year_added": {"Assembly": 2902, "C": 690073, "C#": 4926, "C++": 11, "Go": 395, "Groovy": 688, "Java": 0, "JavaScript": 14510, "Python": 82820, "Ruby": 152, "Rust": 10369, "Shell": 67959, "TypeScript": 10676}}</metadata><rect width="520" height="331" rx="5" fill="#020c14" /><text x="25" y="32" font-size="20" fill="#58a6ff" font-weight="600" font-family="Segoe UI, Arial, sans-serif">Languages · all time</text><text x="25" y="54" font-size="15" fill="#c9d1d9" font-weight="600" font-family="Segoe UI, Arial, sans-serif">Career LOC added: 932,492</text><text x="25" y="73" font-size="12" fill="#8b949e" font-weight="400" font-family="Segoe UI, Arial, sans-serif">161,879 removed · public + private Git history</text><text x="25" y="93" font-size="12" fill="#8b949e" font-weight="400" font-family="Segoe UI, Arial, sans-serif">Career LOC share % · career LOC added</text><rect x="25.0" y="105" width="354.6244686281491" height="8" fill="#a8b9cc" /><rect x="379.6244686281491" y="105" width="41.74341442071353" height="8" fill="#3572a5" /><rect x="421.3678830488626" y="105" width="41.451079473067864" height="8" fill="#89e051" /><rect x="462.8189625219305" y="105" width="7.313413948859615" height="8" fill="#f1e05a" /><rect x="470.13237647079006" y="105" width="6.638019414643772" height="8" fill="#b56bc3" /><rect x="476.77039588543386" y="105" width="5.380979139767419" height="8" fill="#3178c6" /><rect x="482.1513750252013" y="105" width="5.226243227823939" height="8" fill="#dea584" /><rect x="487.3776182530252" y="105" width="4.629980739781145" height="8" fill="#e79432" /><rect x="492.0075989928064" y="105" width="2.2857568751260064" height="8" fill="#c59b55" /><rect x="494.2933558679324" y="105" width="0.4253977514016206" height="8" fill="#4298b8" /><rect x="494.71875361933405" y="105" width="0.19909017986213287" height="8" fill="#00add8" /><rect x="494.9178437991962" y="105" width="0.07661191731403594" height="8" fill="#cc342d" /><rect x="494.99445571651023" y="105" width="0.005544283489831548" height="8" fill="#f34b7d" /><circle cx="29" cy="133" r="4" fill="#a8b9cc" /><text x="39" y="137" font-size="13" fill="#c9d1d9" font-weight="400" font-family="Segoe UI, Arial, sans-serif">C 75.5% · 703,584 LOC</text><circle cx="267" cy="133" r="4" fill="#3572a5" /><text x="277" y="137" font-size="13" fill="#c9d1d9" font-weight="400" font-family="Segoe UI, Arial, sans-serif">Python 8.9% · 82,820 LOC</text><circle cx="29" cy="161" r="4" fill="#89e051" /><text x="39" y="165" font-size="13" fill="#c9d1d9" font-weight="400" font-family="Segoe UI, Arial, sans-serif">Shell 8.8% · 82,240 LOC</text><circle cx="267" cy="161" r="4" fill="#f1e05a" /><text x="277" y="165" font-size="13" fill="#c9d1d9" font-weight="400" font-family="Segoe UI, Arial, sans-serif">JavaScript 1.6% · 14,510 LOC</text><circle cx="29" cy="189" r="4" fill="#b56bc3" /><text x="39" y="193" font-size="13" fill="#c9d1d9" font-weight="400" font-family="Segoe UI, Arial, sans-serif">C# 1.4% · 13,170 LOC</text><circle cx="267" cy="189" r="4" fill="#3178c6" /><text x="277" y="193" font-size="13" fill="#c9d1d9" font-weight="400" font-family="Segoe UI, Arial, sans-serif">TypeScript 1.1% · 10,676 LOC</text><circle cx="29" cy="217" r="4" fill="#dea584" /><text x="39" y="221" font-size="13" fill="#c9d1d9" font-weight="400" font-family="Segoe UI, Arial, sans-serif">Rust 1.1% · 10,369 LOC</text><circle cx="267" cy="217" r="4" fill="#e79432" /><text x="277" y="221" font-size="13" fill="#c9d1d9" font-weight="400" font-family="Segoe UI, Arial, sans-serif">Java 1.0% · 9,186 LOC</text><circle cx="29" cy="245" r="4" fill="#c59b55" /><text x="39" y="249" font-size="13" fill="#c9d1d9" font-weight="400" font-family="Segoe UI, Arial, sans-serif">Assembly 0.5% · 4,535 LOC</text><circle cx="267" cy="245" r="4" fill="#4298b8" /><text x="277" y="249" font-size="13" fill="#c9d1d9" font-weight="400" font-family="Segoe UI, Arial, sans-serif">Groovy &lt;0.1% · 844 LOC</text><circle cx="29" cy="273" r="4" fill="#00add8" /><text x="39" y="277" font-size="13" fill="#c9d1d9" font-weight="400" font-family="Segoe UI, Arial, sans-serif">Go &lt;0.1% · 395 LOC</text><circle cx="267" cy="273" r="4" fill="#cc342d" /><text x="277" y="277" font-size="13" fill="#c9d1d9" font-weight="400" font-family="Segoe UI, Arial, sans-serif">Ruby &lt;0.1% · 152 LOC</text><circle cx="29" cy="301" r="4" fill="#f34b7d" /><text x="39" y="305" font-size="13" fill="#c9d1d9" font-weight="400" font-family="Segoe UI, Arial, sans-serif">C++ &lt;0.1% · 11 LOC</text><text x="25" y="320" font-size="11" fill="#8b949e" font-weight="400" font-family="Segoe UI, Arial, sans-serif">Updated 2026-10-09</text></svg></svg>
